<?xml version="1.0" encoding="utf-8"?><svg viewBox="0 0 230 230" xmlns="http://www.w3.org/2000/svg" xmlns:xlink="http://www.w3.org/1999/xlink"><style>:root>svg{display:none}:root>svg:target{display:block}</style><svg fill="none" viewBox="0 0 16 16" id="Pinterest" xmlns="http://www.w3.org/2000/svg"><path d="M15.5 8A7.749 7.749 0 007.75.25 7.749 7.749 0 000 8a7.714 7.714 0 004.906 7.219c-.062-.594-.125-1.531.032-2.219.156-.594.906-3.844.906-3.844S5.625 8.687 5.625 8c0-1.063.625-1.875 1.406-1.875.657 0 .969.5.969 1.094 0 .656-.438 1.656-.656 2.593-.157.75.406 1.376 1.156 1.376 1.375 0 2.438-1.438 2.438-3.532 0-1.875-1.344-3.156-3.22-3.156-2.218 0-3.5 1.656-3.5 3.344 0 .687.25 1.406.563 1.781.063.063.063.156.063.219-.063.25-.219.781-.219.875-.031.156-.125.187-.281.125-.969-.469-1.563-1.875-1.563-3.031 0-2.438 1.781-4.688 5.125-4.688 2.688 0 4.782 1.938 4.782 4.5 0 2.656-1.688 4.813-4.032 4.813-.781 0-1.531-.407-1.781-.907 0 0-.375 1.5-.469 1.844-.187.688-.656 1.531-.968 2.031.718.25 1.5.344 2.312.344A7.749 7.749 0 0015.5 8z" fill="#707070"/></svg><svg fill="none" viewBox="0 0 17 17" id="Shape" xmlns="http://www.w3.org/2000/svg"><path fill-rule="evenodd" clip-rule="evenodd" d="M11.958 10.957l4.834 4.834a.708.708 0 11-1.001 1.001l-4.835-4.834a6.697 6.697 0 01-4.227 1.5A6.737 6.737 0 010 6.73C0 3.02 3.019 0 6.73 0c3.71 0 6.728 3.019 6.728 6.73 0 1.6-.564 3.07-1.5 4.226zM1.417 6.729a5.318 5.318 0 005.312 5.313 5.318 5.318 0 005.312-5.313A5.318 5.318 0 006.73 1.417a5.318 5.318 0 00-5.312 5.312z" fill="#5A5A5A"/></svg><svg fill="none" viewBox="0 0 16 14" id="Twitter" xmlns="http://www.w3.org/2000/svg"><path d="M14.344 3.75a6.952 6.952 0 001.625-1.688 6.151 6.151 0 01-1.875.5A3.206 3.206 0 0015.53.75a6.93 6.93 0 01-2.062.813A3.282 3.282 0 0011.063.53 3.28 3.28 0 007.78 3.812c0 .25.032.5.094.75a9.52 9.52 0 01-6.781-3.437 3.192 3.192 0 00-.438 1.656A3.23 3.23 0 002.124 5.5c-.531-.031-1.063-.156-1.5-.406v.031A3.285 3.285 0 003.25 8.344c-.25.062-.563.125-.844.125-.219 0-.406-.031-.625-.063a3.265 3.265 0 003.063 2.281A6.597 6.597 0 01.78 12.095c-.281 0-.531-.031-.781-.063 1.438.938 3.156 1.469 5.031 1.469 6.032 0 9.313-4.969 9.313-9.313V3.75z" fill="#5A5A5A"/></svg><svg fill="none" viewBox="0 0 10 17" id="blog-slide-next" xmlns="http://www.w3.org/2000/svg"><path d="M9.529 7.292a1.61 1.61 0 00-.273-.221L2.788.48A1.596 1.596 0 00.502.483a1.668 1.668 0 000 2.329l5.57 5.674L.474 14.19a1.668 1.668 0 000 2.328 1.597 1.597 0 002.285 0L9.256 9.9a1.628 1.628 0 00.743-1.415 1.652 1.652 0 00-.47-1.193z" fill="#000"/></svg><svg fill="none" viewBox="0 0 10 17" id="blog-slide-prev" xmlns="http://www.w3.org/2000/svg"><path d="M.47 7.292c.086-.086.177-.159.274-.222L7.212.482a1.596 1.596 0 012.286 0 1.668 1.668 0 010 2.329l-5.57 5.674 5.599 5.704a1.668 1.668 0 010 2.329 1.596 1.596 0 01-2.286 0L.744 9.898a1.612 1.612 0 01-.273-.22A1.653 1.653 0 010 8.484a1.647 1.647 0 01.47-1.193z" fill="#000"/></svg><svg fill="none" viewBox="0 0 16 16" id="facebook" xmlns="http://www.w3.org/2000/svg"><path d="M15.75 8A7.749 7.749 0 008 .25 7.749 7.749 0 00.25 8c0 3.875 2.813 7.094 6.531 7.656V10.25H4.813V8H6.78V6.312c0-1.937 1.157-3.03 2.907-3.03.874 0 1.75.155 1.75.155v1.907h-.97c-.968 0-1.28.593-1.28 1.218V8h2.156L11 10.25H9.187v5.406A7.74 7.74 0 0015.75 8z" fill="#707070"/></svg><svg fill="none" viewBox="0 0 14 15" id="instagram" xmlns="http://www.w3.org/2000/svg"><path d="M7 3.406C5 3.406 3.406 5.031 3.406 7 3.406 9 5 10.594 7 10.594A3.594 3.594 0 0010.594 7c0-1.969-1.625-3.594-3.594-3.594zm0 5.938A2.34 2.34 0 014.656 7c0-1.281 1.032-2.313 2.344-2.313A2.307 2.307 0 019.313 7C9.313 8.313 8.28 9.344 7 9.344zm4.563-6.063a.84.84 0 00-.844-.844.84.84 0 00-.844.844.84.84 0 00.844.844.84.84 0 00.844-.844zm2.374.844C13.876 3 13.626 2 12.813 1.187 12 .375 11 .125 9.874.063 8.719 0 5.25 0 4.094.063 2.969.126 2 .376 1.156 1.188.344 2 .094 3 .031 4.126c-.061 1.155-.061 4.624 0 5.78.063 1.125.313 2.094 1.125 2.938.844.812 1.813 1.062 2.938 1.125 1.156.062 4.625.062 5.781 0 1.125-.063 2.125-.313 2.938-1.125.812-.844 1.062-1.813 1.124-2.938.063-1.156.063-4.625 0-5.781zm-1.5 7c-.218.625-.718 1.094-1.312 1.344-.938.375-3.125.281-4.125.281-1.031 0-3.219.094-4.125-.281a2.37 2.37 0 01-1.344-1.344C1.156 10.219 1.25 8.031 1.25 7c0-1-.094-3.188.281-4.125a2.41 2.41 0 011.344-1.313c.906-.375 3.094-.28 4.125-.28 1 0 3.188-.095 4.125.28.594.22 1.063.72 1.313 1.313.374.938.28 3.125.28 4.125 0 1.031.095 3.219-.28 4.125z" fill="#707070"/></svg><svg fill="none" viewBox="0 0 16 12" id="mail" xmlns="http://www.w3.org/2000/svg"><path d="M14.5 0h-13A1.5 1.5 0 000 1.5v9c0 .844.656 1.5 1.5 1.5h13a1.5 1.5 0 001.5-1.5v-9c0-.813-.688-1.5-1.5-1.5zm0 1.5v1.281c-.719.594-1.844 1.469-4.219 3.344C9.75 6.531 8.72 7.531 8 7.5c-.75.031-1.781-.969-2.313-1.375-2.375-1.875-3.5-2.75-4.187-3.344V1.5h13zm-13 9V4.719c.688.562 1.719 1.375 3.25 2.593C5.438 7.845 6.656 9.033 8 9c1.313.031 2.5-1.156 3.219-1.688A510.233 510.233 0 0114.5 4.72v5.78h-13z" fill="#363838"/></svg><svg fill="none" viewBox="0 0 12 23" id="next" xmlns="http://www.w3.org/2000/svg"><path opacity=".7" fill-rule="evenodd" clip-rule="evenodd" d="M11.747 10.869L1.47.26A.841.841 0 00.252.262a.914.914 0 00.001 1.26L9.92 11.5.253 21.477a.914.914 0 00-.002 1.26.845.845 0 001.219.003l10.277-10.61A.906.906 0 0012 11.5a.909.909 0 00-.253-.631z" fill="#363838"/></svg><svg viewBox="0 0 230 230" id="play-button" xmlns="http://www.w3.org/2000/svg"><path d="M115 0C51.488 0 0 51.488 0 115c0 63.514 51.488 115 115 115 63.514 0 115-51.486 115-115C230 51.488 178.514 0 115 0zM91.094 177.168l.002-124.334L165.846 115l-74.752 62.168z"/></svg><svg fill="none" viewBox="0 0 12 23" id="prev" xmlns="http://www.w3.org/2000/svg"><path opacity=".7" fill-rule="evenodd" clip-rule="evenodd" d="M.253 10.869L10.53.26a.841.841 0 011.218.002.914.914 0 01-.001 1.26L2.08 11.5l9.666 9.977a.914.914 0 01.002 1.26.845.845 0 01-1.219.003L.253 12.13A.906.906 0 010 11.5c0-.237.091-.464.253-.631z" fill="#363838"/></svg><svg viewBox="0 0 16 16" id="sidebar" xmlns="http://www.w3.org/2000/svg"><g fill="#2e3436" font-family="sans-serif" font-weight="400"><path d="M3.994 5h1c.31 0 .552.09.75.281L8.4 8l-2.656 2.719c-.198.19-.44.281-.75.281h-1v-1c0-.257.13-.528.312-.719L5.588 8 4.306 6.719c-.182-.19-.312-.462-.312-.719z" overflow="visible" style="isolation:auto;mix-blend-mode:normal;text-decoration-color:#000;text-decoration-line:none;text-decoration-style:solid;text-indent:0;text-transform:none;white-space:normal"/><path d="M2.994 1v2h7v10h-7v2h7s.459.014.947-.23c.489-.245 1.053-.937 1.053-1.77V3c0-.833-.564-1.525-1.053-1.77C10.453.986 9.994 1 9.994 1z" fill-rule="evenodd" overflow="visible" style="font-feature-settings:normal;font-variant-alternates:normal;font-variant-caps:normal;font-variant-ligatures:normal;font-variant-numeric:normal;font-variant-position:normal;isolation:auto;mix-blend-mode:normal;shape-padding:0;text-decoration-color:#000;text-decoration-line:none;text-decoration-style:solid;text-indent:0;text-orientation:mixed;text-transform:none;white-space:normal"/></g></svg><svg fill="none" viewBox="0 0 14 14" id="whatsapp" xmlns="http://www.w3.org/2000/svg"><path d="M11.875 2.063A6.826 6.826 0 006.969 0C3.156 0 .03 3.125.03 6.938c0 1.25.344 2.437.938 3.468L0 14l3.656-.938c1.031.532 2.156.844 3.313.844 3.843 0 7.031-3.125 7.031-6.937 0-1.875-.813-3.594-2.125-4.907zM6.969 12.719a5.78 5.78 0 01-2.938-.813l-.187-.125-2.188.594.594-2.125-.156-.219c-.563-.937-.875-2-.875-3.094 0-3.156 2.593-5.75 5.781-5.75 1.531 0 2.969.594 4.063 1.688 1.093 1.094 1.75 2.531 1.75 4.094 0 3.156-2.657 5.75-5.844 5.75zm3.187-4.313c-.187-.094-1.031-.5-1.187-.562-.156-.063-.281-.094-.406.093-.094.157-.438.563-.532.688-.125.094-.219.125-.375.031-1.031-.5-1.687-.906-2.375-2.062-.187-.313.188-.282.5-.938.063-.125.032-.218 0-.312-.031-.094-.406-.938-.531-1.282-.156-.343-.281-.312-.406-.312H4.53a.586.586 0 00-.468.219c-.157.187-.594.594-.594 1.437 0 .875.594 1.688.687 1.813.094.093 1.219 1.843 2.969 2.593 1.094.5 1.531.532 2.094.438.312-.031 1-.406 1.156-.813.156-.406.156-.75.094-.812-.031-.094-.156-.125-.313-.219z" fill="#707070"/></svg><svg fill="none" viewBox="0 0 18 12" id="youtube" xmlns="http://www.w3.org/2000/svg"><path d="M17.156 1.906a2.126 2.126 0 00-1.5-1.531C14.312 0 9 0 9 0S3.656 0 2.312.375a2.126 2.126 0 00-1.5 1.531C.438 3.22.438 6.031.438 6.031s0 2.782.376 4.125a2.08 2.08 0 001.5 1.5C3.655 12 9 12 9 12s5.313 0 6.656-.344a2.084 2.084 0 001.5-1.5c.375-1.344.375-4.125.375-4.125s0-2.812-.375-4.125zM7.25 8.563V3.5l4.438 2.531L7.25 8.563z" fill="#707070"/></svg></svg>